<mxfile host="Electron" modified="2023-08-29T17:32:36.297Z" agent="Mozilla/5.0 (Windows NT 10.0; Win64; x64) AppleWebKit/537.36 (KHTML, like Gecko) draw.io/21.6.8 Chrome/114.0.5735.289 Electron/25.5.0 Safari/537.36" etag="Z6uQM1qE-swex0R1vQy8" version="21.6.8" type="device">
  <diagram id="R2lEEEUBdFMjLlhIrx00" name="Page-1">
    <mxGraphModel dx="1004" dy="614" grid="1" gridSize="10" guides="1" tooltips="1" connect="1" arrows="1" fold="1" page="1" pageScale="1" pageWidth="850" pageHeight="1100" math="0" shadow="0" extFonts="Permanent Marker^https://fonts.googleapis.com/css?family=Permanent+Marker">
      <root>
        <mxCell id="0" />
        <mxCell id="1" parent="0" />
        <mxCell id="4cMhmoyBrOQj3uHqXDNh-21" style="edgeStyle=orthogonalEdgeStyle;rounded=0;orthogonalLoop=1;jettySize=auto;html=1;exitX=0.5;exitY=1;exitDx=0;exitDy=0;entryX=0.5;entryY=0;entryDx=0;entryDy=0;" edge="1" parent="1" source="4cMhmoyBrOQj3uHqXDNh-1" target="4cMhmoyBrOQj3uHqXDNh-18">
          <mxGeometry relative="1" as="geometry" />
        </mxCell>
        <mxCell id="4cMhmoyBrOQj3uHqXDNh-23" style="edgeStyle=orthogonalEdgeStyle;rounded=0;orthogonalLoop=1;jettySize=auto;html=1;exitX=0.75;exitY=1;exitDx=0;exitDy=0;" edge="1" parent="1" source="4cMhmoyBrOQj3uHqXDNh-1" target="4cMhmoyBrOQj3uHqXDNh-20">
          <mxGeometry relative="1" as="geometry" />
        </mxCell>
        <mxCell id="4cMhmoyBrOQj3uHqXDNh-42" value="1-1" style="edgeLabel;html=1;align=center;verticalAlign=middle;resizable=0;points=[];" vertex="1" connectable="0" parent="4cMhmoyBrOQj3uHqXDNh-23">
          <mxGeometry x="-0.1927" y="3" relative="1" as="geometry">
            <mxPoint as="offset" />
          </mxGeometry>
        </mxCell>
        <mxCell id="4cMhmoyBrOQj3uHqXDNh-24" style="edgeStyle=orthogonalEdgeStyle;rounded=0;orthogonalLoop=1;jettySize=auto;html=1;exitX=0.25;exitY=1;exitDx=0;exitDy=0;entryX=0.5;entryY=0;entryDx=0;entryDy=0;" edge="1" parent="1" source="4cMhmoyBrOQj3uHqXDNh-1" target="4cMhmoyBrOQj3uHqXDNh-19">
          <mxGeometry relative="1" as="geometry" />
        </mxCell>
        <mxCell id="4cMhmoyBrOQj3uHqXDNh-41" value="1-1" style="edgeLabel;html=1;align=center;verticalAlign=middle;resizable=0;points=[];" vertex="1" connectable="0" parent="4cMhmoyBrOQj3uHqXDNh-24">
          <mxGeometry x="-0.0073" relative="1" as="geometry">
            <mxPoint as="offset" />
          </mxGeometry>
        </mxCell>
        <mxCell id="4cMhmoyBrOQj3uHqXDNh-28" style="edgeStyle=orthogonalEdgeStyle;rounded=0;orthogonalLoop=1;jettySize=auto;html=1;exitX=0.5;exitY=0;exitDx=0;exitDy=0;entryX=0.5;entryY=1;entryDx=0;entryDy=0;" edge="1" parent="1" source="4cMhmoyBrOQj3uHqXDNh-1" target="4cMhmoyBrOQj3uHqXDNh-26">
          <mxGeometry relative="1" as="geometry" />
        </mxCell>
        <mxCell id="4cMhmoyBrOQj3uHqXDNh-48" value="1-1" style="edgeLabel;html=1;align=center;verticalAlign=middle;resizable=0;points=[];" vertex="1" connectable="0" parent="4cMhmoyBrOQj3uHqXDNh-28">
          <mxGeometry x="0.355" y="-1" relative="1" as="geometry">
            <mxPoint as="offset" />
          </mxGeometry>
        </mxCell>
        <mxCell id="4cMhmoyBrOQj3uHqXDNh-29" style="edgeStyle=orthogonalEdgeStyle;rounded=0;orthogonalLoop=1;jettySize=auto;html=1;exitX=0.75;exitY=0;exitDx=0;exitDy=0;entryX=0.5;entryY=1;entryDx=0;entryDy=0;" edge="1" parent="1" source="4cMhmoyBrOQj3uHqXDNh-1" target="4cMhmoyBrOQj3uHqXDNh-27">
          <mxGeometry relative="1" as="geometry" />
        </mxCell>
        <mxCell id="4cMhmoyBrOQj3uHqXDNh-49" value="0-N" style="edgeLabel;html=1;align=center;verticalAlign=middle;resizable=0;points=[];" vertex="1" connectable="0" parent="4cMhmoyBrOQj3uHqXDNh-29">
          <mxGeometry x="-0.2836" y="-1" relative="1" as="geometry">
            <mxPoint as="offset" />
          </mxGeometry>
        </mxCell>
        <mxCell id="4cMhmoyBrOQj3uHqXDNh-30" style="edgeStyle=orthogonalEdgeStyle;rounded=0;orthogonalLoop=1;jettySize=auto;html=1;exitX=0.25;exitY=0;exitDx=0;exitDy=0;entryX=0.5;entryY=1;entryDx=0;entryDy=0;" edge="1" parent="1" source="4cMhmoyBrOQj3uHqXDNh-1" target="4cMhmoyBrOQj3uHqXDNh-25">
          <mxGeometry relative="1" as="geometry" />
        </mxCell>
        <mxCell id="4cMhmoyBrOQj3uHqXDNh-47" value="1-1" style="edgeLabel;html=1;align=center;verticalAlign=middle;resizable=0;points=[];" vertex="1" connectable="0" parent="4cMhmoyBrOQj3uHqXDNh-30">
          <mxGeometry x="-0.1754" y="-3" relative="1" as="geometry">
            <mxPoint as="offset" />
          </mxGeometry>
        </mxCell>
        <mxCell id="4cMhmoyBrOQj3uHqXDNh-33" style="edgeStyle=orthogonalEdgeStyle;rounded=0;orthogonalLoop=1;jettySize=auto;html=1;exitX=0;exitY=0;exitDx=0;exitDy=0;entryX=1;entryY=1;entryDx=0;entryDy=0;" edge="1" parent="1" source="4cMhmoyBrOQj3uHqXDNh-1" target="4cMhmoyBrOQj3uHqXDNh-31">
          <mxGeometry relative="1" as="geometry">
            <Array as="points">
              <mxPoint x="275" y="200" />
            </Array>
          </mxGeometry>
        </mxCell>
        <mxCell id="4cMhmoyBrOQj3uHqXDNh-46" value="0-1" style="edgeLabel;html=1;align=center;verticalAlign=middle;resizable=0;points=[];" vertex="1" connectable="0" parent="4cMhmoyBrOQj3uHqXDNh-33">
          <mxGeometry x="-0.2097" y="1" relative="1" as="geometry">
            <mxPoint as="offset" />
          </mxGeometry>
        </mxCell>
        <mxCell id="4cMhmoyBrOQj3uHqXDNh-34" style="edgeStyle=orthogonalEdgeStyle;rounded=0;orthogonalLoop=1;jettySize=auto;html=1;exitX=1;exitY=0;exitDx=0;exitDy=0;entryX=0;entryY=1;entryDx=0;entryDy=0;" edge="1" parent="1" source="4cMhmoyBrOQj3uHqXDNh-1" target="4cMhmoyBrOQj3uHqXDNh-32">
          <mxGeometry relative="1" as="geometry">
            <Array as="points">
              <mxPoint x="565" y="200" />
            </Array>
          </mxGeometry>
        </mxCell>
        <mxCell id="4cMhmoyBrOQj3uHqXDNh-45" value="0-1" style="edgeLabel;html=1;align=center;verticalAlign=middle;resizable=0;points=[];" vertex="1" connectable="0" parent="4cMhmoyBrOQj3uHqXDNh-34">
          <mxGeometry x="-0.3948" relative="1" as="geometry">
            <mxPoint as="offset" />
          </mxGeometry>
        </mxCell>
        <mxCell id="4cMhmoyBrOQj3uHqXDNh-1" value="Abonados" style="rounded=0;whiteSpace=wrap;html=1;" vertex="1" parent="1">
          <mxGeometry x="370" y="200" width="120" height="60" as="geometry" />
        </mxCell>
        <mxCell id="4cMhmoyBrOQj3uHqXDNh-6" style="edgeStyle=orthogonalEdgeStyle;rounded=0;orthogonalLoop=1;jettySize=auto;html=1;exitX=0;exitY=0.5;exitDx=0;exitDy=0;entryX=1;entryY=0.5;entryDx=0;entryDy=0;" edge="1" parent="1" source="4cMhmoyBrOQj3uHqXDNh-2" target="4cMhmoyBrOQj3uHqXDNh-5">
          <mxGeometry relative="1" as="geometry" />
        </mxCell>
        <mxCell id="4cMhmoyBrOQj3uHqXDNh-43" value="1-1" style="edgeLabel;html=1;align=center;verticalAlign=middle;resizable=0;points=[];" vertex="1" connectable="0" parent="4cMhmoyBrOQj3uHqXDNh-6">
          <mxGeometry x="0.04" y="1" relative="1" as="geometry">
            <mxPoint as="offset" />
          </mxGeometry>
        </mxCell>
        <mxCell id="4cMhmoyBrOQj3uHqXDNh-2" value="Disiplinas" style="rounded=0;whiteSpace=wrap;html=1;" vertex="1" parent="1">
          <mxGeometry x="180" y="390" width="120" height="60" as="geometry" />
        </mxCell>
        <mxCell id="4cMhmoyBrOQj3uHqXDNh-9" style="edgeStyle=orthogonalEdgeStyle;rounded=0;orthogonalLoop=1;jettySize=auto;html=1;exitX=1;exitY=0.5;exitDx=0;exitDy=0;entryX=0;entryY=0.5;entryDx=0;entryDy=0;" edge="1" parent="1" source="4cMhmoyBrOQj3uHqXDNh-3" target="4cMhmoyBrOQj3uHqXDNh-8">
          <mxGeometry relative="1" as="geometry" />
        </mxCell>
        <mxCell id="4cMhmoyBrOQj3uHqXDNh-44" value="1-1" style="edgeLabel;html=1;align=center;verticalAlign=middle;resizable=0;points=[];" vertex="1" connectable="0" parent="4cMhmoyBrOQj3uHqXDNh-9">
          <mxGeometry x="-0.145" y="-1" relative="1" as="geometry">
            <mxPoint as="offset" />
          </mxGeometry>
        </mxCell>
        <mxCell id="4cMhmoyBrOQj3uHqXDNh-3" value="Antecedentes medicos" style="rounded=0;whiteSpace=wrap;html=1;" vertex="1" parent="1">
          <mxGeometry x="550" y="390" width="120" height="60" as="geometry" />
        </mxCell>
        <mxCell id="4cMhmoyBrOQj3uHqXDNh-5" value="Costo Mensual" style="ellipse;whiteSpace=wrap;html=1;align=center;" vertex="1" parent="1">
          <mxGeometry x="60" y="360" width="100" height="40" as="geometry" />
        </mxCell>
        <mxCell id="4cMhmoyBrOQj3uHqXDNh-8" value="Descripcion" style="ellipse;whiteSpace=wrap;html=1;align=center;" vertex="1" parent="1">
          <mxGeometry x="710" y="360" width="100" height="40" as="geometry" />
        </mxCell>
        <mxCell id="4cMhmoyBrOQj3uHqXDNh-10" value="Realiza" style="rhombus;whiteSpace=wrap;html=1;" vertex="1" parent="1">
          <mxGeometry x="200" y="190" width="80" height="80" as="geometry" />
        </mxCell>
        <mxCell id="4cMhmoyBrOQj3uHqXDNh-11" value="" style="endArrow=none;html=1;rounded=0;entryX=0;entryY=0.5;entryDx=0;entryDy=0;" edge="1" parent="1" source="4cMhmoyBrOQj3uHqXDNh-10" target="4cMhmoyBrOQj3uHqXDNh-1">
          <mxGeometry width="50" height="50" relative="1" as="geometry">
            <mxPoint x="280" y="290" as="sourcePoint" />
            <mxPoint x="350.71067811865476" y="240" as="targetPoint" />
          </mxGeometry>
        </mxCell>
        <mxCell id="4cMhmoyBrOQj3uHqXDNh-35" value="0-N" style="edgeLabel;html=1;align=center;verticalAlign=middle;resizable=0;points=[];" vertex="1" connectable="0" parent="4cMhmoyBrOQj3uHqXDNh-11">
          <mxGeometry x="-0.1022" relative="1" as="geometry">
            <mxPoint as="offset" />
          </mxGeometry>
        </mxCell>
        <mxCell id="4cMhmoyBrOQj3uHqXDNh-12" value="" style="endArrow=none;html=1;rounded=0;entryX=0.5;entryY=0;entryDx=0;entryDy=0;" edge="1" parent="1" source="4cMhmoyBrOQj3uHqXDNh-10" target="4cMhmoyBrOQj3uHqXDNh-2">
          <mxGeometry width="50" height="50" relative="1" as="geometry">
            <mxPoint x="240" y="330" as="sourcePoint" />
            <mxPoint x="240" y="350.71067811865476" as="targetPoint" />
          </mxGeometry>
        </mxCell>
        <mxCell id="4cMhmoyBrOQj3uHqXDNh-36" value="O-N" style="edgeLabel;html=1;align=center;verticalAlign=middle;resizable=0;points=[];" vertex="1" connectable="0" parent="4cMhmoyBrOQj3uHqXDNh-12">
          <mxGeometry x="-0.07" relative="1" as="geometry">
            <mxPoint as="offset" />
          </mxGeometry>
        </mxCell>
        <mxCell id="4cMhmoyBrOQj3uHqXDNh-13" value="Tiene" style="rhombus;whiteSpace=wrap;html=1;" vertex="1" parent="1">
          <mxGeometry x="570" y="190" width="80" height="80" as="geometry" />
        </mxCell>
        <mxCell id="4cMhmoyBrOQj3uHqXDNh-14" value="" style="endArrow=none;html=1;rounded=0;entryX=0;entryY=0.5;entryDx=0;entryDy=0;" edge="1" parent="1" source="4cMhmoyBrOQj3uHqXDNh-1" target="4cMhmoyBrOQj3uHqXDNh-13">
          <mxGeometry width="50" height="50" relative="1" as="geometry">
            <mxPoint x="490" y="280" as="sourcePoint" />
            <mxPoint x="530" y="230" as="targetPoint" />
          </mxGeometry>
        </mxCell>
        <mxCell id="4cMhmoyBrOQj3uHqXDNh-37" value="0-N" style="edgeLabel;html=1;align=center;verticalAlign=middle;resizable=0;points=[];" vertex="1" connectable="0" parent="4cMhmoyBrOQj3uHqXDNh-14">
          <mxGeometry x="0.01" y="-2" relative="1" as="geometry">
            <mxPoint as="offset" />
          </mxGeometry>
        </mxCell>
        <mxCell id="4cMhmoyBrOQj3uHqXDNh-15" value="" style="endArrow=none;html=1;rounded=0;entryX=0.5;entryY=0;entryDx=0;entryDy=0;" edge="1" parent="1" source="4cMhmoyBrOQj3uHqXDNh-13" target="4cMhmoyBrOQj3uHqXDNh-3">
          <mxGeometry width="50" height="50" relative="1" as="geometry">
            <mxPoint x="610" y="320" as="sourcePoint" />
            <mxPoint x="610" y="340.71067811865476" as="targetPoint" />
          </mxGeometry>
        </mxCell>
        <mxCell id="4cMhmoyBrOQj3uHqXDNh-38" value="1-1" style="edgeLabel;html=1;align=center;verticalAlign=middle;resizable=0;points=[];" vertex="1" connectable="0" parent="4cMhmoyBrOQj3uHqXDNh-15">
          <mxGeometry x="0.08" y="1" relative="1" as="geometry">
            <mxPoint as="offset" />
          </mxGeometry>
        </mxCell>
        <mxCell id="4cMhmoyBrOQj3uHqXDNh-17" style="edgeStyle=orthogonalEdgeStyle;rounded=0;orthogonalLoop=1;jettySize=auto;html=1;exitX=1;exitY=0.5;exitDx=0;exitDy=0;entryX=0.25;entryY=1;entryDx=0;entryDy=0;" edge="1" parent="1" source="4cMhmoyBrOQj3uHqXDNh-16" target="4cMhmoyBrOQj3uHqXDNh-2">
          <mxGeometry relative="1" as="geometry" />
        </mxCell>
        <mxCell id="4cMhmoyBrOQj3uHqXDNh-16" value="Nombre" style="ellipse;whiteSpace=wrap;html=1;align=center;fontStyle=4;" vertex="1" parent="1">
          <mxGeometry x="60" y="450" width="100" height="40" as="geometry" />
        </mxCell>
        <mxCell id="4cMhmoyBrOQj3uHqXDNh-18" value="DNI" style="ellipse;whiteSpace=wrap;html=1;align=center;fontStyle=4;" vertex="1" parent="1">
          <mxGeometry x="380" y="300" width="100" height="40" as="geometry" />
        </mxCell>
        <mxCell id="4cMhmoyBrOQj3uHqXDNh-19" value="Apellido" style="ellipse;whiteSpace=wrap;html=1;align=center;" vertex="1" parent="1">
          <mxGeometry x="280" y="300" width="100" height="40" as="geometry" />
        </mxCell>
        <mxCell id="4cMhmoyBrOQj3uHqXDNh-20" value="Nombre" style="ellipse;whiteSpace=wrap;html=1;align=center;" vertex="1" parent="1">
          <mxGeometry x="480" y="300" width="100" height="40" as="geometry" />
        </mxCell>
        <mxCell id="4cMhmoyBrOQj3uHqXDNh-25" value="Peso" style="ellipse;whiteSpace=wrap;html=1;align=center;" vertex="1" parent="1">
          <mxGeometry x="270" y="110" width="100" height="40" as="geometry" />
        </mxCell>
        <mxCell id="4cMhmoyBrOQj3uHqXDNh-26" value="Estatura" style="ellipse;whiteSpace=wrap;html=1;align=center;" vertex="1" parent="1">
          <mxGeometry x="370" y="90" width="100" height="40" as="geometry" />
        </mxCell>
        <mxCell id="4cMhmoyBrOQj3uHqXDNh-27" value="Contacto" style="ellipse;whiteSpace=wrap;html=1;align=center;" vertex="1" parent="1">
          <mxGeometry x="470" y="110" width="100" height="40" as="geometry" />
        </mxCell>
        <mxCell id="4cMhmoyBrOQj3uHqXDNh-31" value="Estado" style="ellipse;whiteSpace=wrap;html=1;align=center;" vertex="1" parent="1">
          <mxGeometry x="190" y="140" width="100" height="40" as="geometry" />
        </mxCell>
        <mxCell id="4cMhmoyBrOQj3uHqXDNh-32" value="Esta al dia" style="ellipse;whiteSpace=wrap;html=1;align=center;" vertex="1" parent="1">
          <mxGeometry x="550" y="140" width="100" height="40" as="geometry" />
        </mxCell>
        <mxCell id="4cMhmoyBrOQj3uHqXDNh-39" value="" style="endArrow=none;html=1;rounded=0;entryX=1;entryY=0.5;entryDx=0;entryDy=0;" edge="1" parent="1" source="4cMhmoyBrOQj3uHqXDNh-40" target="4cMhmoyBrOQj3uHqXDNh-1">
          <mxGeometry width="50" height="50" relative="1" as="geometry">
            <mxPoint x="750" y="440" as="sourcePoint" />
            <mxPoint x="420" y="290" as="targetPoint" />
          </mxGeometry>
        </mxCell>
        <mxCell id="4cMhmoyBrOQj3uHqXDNh-40" value="Identificardor externo" style="ellipse;whiteSpace=wrap;html=1;align=center;" vertex="1" parent="1">
          <mxGeometry x="700" y="420" width="100" height="40" as="geometry" />
        </mxCell>
      </root>
    </mxGraphModel>
  </diagram>
</mxfile>
